# xmcd
#
# Track frame offsets:
#	150
#	16237
#	29300
#	46445
#	62225
#	81865
#	97350
#	112477
#	131920
#	145150
#	161732
#
# Disc length: 2336 seconds
#
# Revision: 0
# Processed by: cddbd v1.4PL0 Copyright (c) Steve Scherf et al.
# Submitted via: audiograbber 1.82.02
#
DISCID=a5091e0b
DTITLE=The Mavericks - Music for All Occasions
DYEAR=1995
DGENRE=Country
TTITLE0=Foolish Heart
TTITLE1=One Step Away
TTITLE2=Here Comes The Rain
TTITLE3=Missing You
TTITLE4=All You Ever Do Is Bring Me Down
TTITLE5=My Secret Flame
TTITLE6=The Writing On The Wall
TTITLE7=Loving You
TTITLE8=If You Only Knew
TTITLE9=I'm Not Gonna Cry For You
TTITLE10=Something Stupid
EXTD=
EXTT0=
EXTT1=
EXTT2=
EXTT3=
EXTT4=
EXTT5=
EXTT6=
EXTT7=
EXTT8=
EXTT9=
EXTT10=
PLAYORDER=
